<svg aria-hidden="true" style="position: absolute; width: 0; height: 0; overflow: hidden;" version="1.1" xmlns="http://www.w3.org/2000/svg" xmlns:xlink="http://www.w3.org/1999/xlink">
<defs>
<symbol id="icon-point-of-sale-terminal-pos-svgrepo-com" viewBox="0 0 32 32">
<path d="M24.046 2.953h-2.054v-1.926c0-0.567-0.46-1.027-1.027-1.027h-9.929c-0.567 0-1.027 0.46-1.027 1.027v1.926h-2.054c-1.324 0-2.397 1.073-2.397 2.397v24.254c0 1.324 1.072 2.397 2.397 2.397h16.093c1.324 0 2.397-1.073 2.397-2.397v-24.254c0-1.323-1.072-2.397-2.397-2.397zM18.739 5.35v-3.295h1.198v5.563h-1.198v-2.268zM12.063 5.35v-3.295h3.766v5.563h-3.766v-2.268zM12.691 29.188c0 0.568-0.46 1.027-1.027 1.027h-1.655c-0.567 0-1.027-0.46-1.027-1.027v-1.768c0-0.568 0.46-1.027 1.027-1.027h1.655c0.567 0 1.027 0.459 1.027 1.027v1.768zM12.691 24.024c0 0.568-0.46 1.027-1.027 1.027h-1.655c-0.567 0-1.027-0.459-1.027-1.027v-1.768c0-0.568 0.46-1.027 1.027-1.027h1.655c0.567 0 1.027 0.46 1.027 1.027v1.768zM12.691 18.86c0 0.568-0.46 1.027-1.027 1.027h-1.655c-0.567 0-1.027-0.46-1.027-1.027v-1.769c0-0.568 0.46-1.027 1.027-1.027h1.655c0.567 0 1.027 0.459 1.027 1.027v1.769zM17.855 29.188c0 0.568-0.46 1.027-1.027 1.027h-1.656c-0.567 0-1.027-0.46-1.027-1.027v-1.768c0-0.568 0.46-1.027 1.027-1.027h1.656c0.567 0 1.027 0.459 1.027 1.027v1.768zM17.855 24.024c0 0.568-0.46 1.027-1.027 1.027h-1.656c-0.567 0-1.027-0.459-1.027-1.027v-1.768c0-0.568 0.46-1.027 1.027-1.027h1.656c0.567 0 1.027 0.46 1.027 1.027v1.768zM17.855 18.86c0 0.568-0.46 1.027-1.027 1.027h-1.656c-0.567 0-1.027-0.46-1.027-1.027v-1.769c0-0.568 0.46-1.027 1.027-1.027h1.656c0.567 0 1.027 0.459 1.027 1.027v1.769zM23.019 29.188c0 0.568-0.46 1.027-1.027 1.027h-1.655c-0.567 0-1.027-0.46-1.027-1.027v-1.768c0-0.568 0.46-1.027 1.027-1.027h1.655c0.567 0 1.027 0.459 1.027 1.027v1.768zM23.019 24.024c0 0.568-0.46 1.027-1.027 1.027h-1.655c-0.567 0-1.027-0.459-1.027-1.027v-1.768c0-0.568 0.46-1.027 1.027-1.027h1.655c0.567 0 1.027 0.46 1.027 1.027v1.768zM23.019 18.86c0 0.568-0.46 1.027-1.027 1.027h-1.655c-0.567 0-1.027-0.46-1.027-1.027v-1.769c0-0.568 0.46-1.027 1.027-1.027h1.655c0.567 0 1.027 0.459 1.027 1.027v1.769zM23.019 12.862c0 0.969-0.786 1.754-1.755 1.754h-10.529c-0.969 0-1.754-0.786-1.754-1.754v-1.813c0-0.97 0.786-1.755 1.754-1.755h10.529c0.969 0 1.755 0.786 1.755 1.755v1.813z"></path>
</symbol>
<symbol id="icon-atm-machine-svgrepo-com" viewBox="0 0 32 32">
<path d="M14.844 14.494v0.783c0 0.904-0.735 1.639-1.64 1.639s-1.639-0.735-1.639-1.639v-0.783h3.279zM18.447 10.109c-0.904 0-1.64 0.735-1.64 1.639v0.783h3.279v-0.783c0-0.904-0.735-1.639-1.639-1.639zM32 4.656v2.754c0 2.125-1.729 3.854-3.854 3.854h-1.142v16.689c0 1.789-1.456 3.245-3.245 3.245h-15.583c-1.789 0-3.245-1.456-3.245-3.245v-16.689h-1.076c-2.125 0-3.855-1.729-3.855-3.854v-2.754c0-2.125 1.729-3.854 3.854-3.854h24.291c2.125 0 3.855 1.729 3.855 3.854zM23.858 13.513c0-0.542-0.44-0.982-0.982-0.982h-0.826v-0.783c0-1.987-1.616-3.603-3.603-3.603s-3.603 1.616-3.603 3.603v0.783h-3.279v-3.404c0-0.542-0.44-0.982-0.982-0.982s-0.982 0.44-0.982 0.982v3.404h-0.543c-0.542 0-0.982 0.44-0.982 0.982s0.44 0.982 0.982 0.982h0.543v0.783c0 1.986 1.616 3.602 3.603 3.602s3.602-1.616 3.602-3.602v-0.783h3.279v3.404c0 0.542 0.44 0.982 0.982 0.982s0.982-0.44 0.982-0.982v-3.404h0.826c0.542 0 0.981-0.439 0.981-0.982zM30.037 4.656c0-1.043-0.848-1.891-1.891-1.891h-24.291c-1.043 0-1.891 0.848-1.891 1.891v2.754c0 1.043 0.848 1.891 1.891 1.891h1.076v-1.207h-0.383c-0.542 0-0.982-0.44-0.982-0.982v-2.159c0-0.542 0.44-0.982 0.982-0.982h22.904c0.542 0 0.982 0.44 0.982 0.982v2.159c0 0.542-0.44 0.982-0.982 0.982h-0.448v1.207h1.142c1.043 0 1.891-0.848 1.891-1.891v-2.754z"></path>
</symbol>
<symbol id="icon-credit-card-svgrepo-com" viewBox="0 0 32 32">
<path d="M0 16v10c0 1.105 0.894 2 2 2h28c1.105 0 2-0.895 2-2v-10h-32zM12 22h-4c-1.106 0-2-0.895-2-2s0.894-2 2-2h4c1.105 0 2 0.895 2 2s-0.895 2-2 2z"></path>
<path d="M32 12v-6c0-1.106-0.895-2-2-2h-28c-1.105 0-2 0.894-2 2v6h32z"></path>
</symbol>
<symbol id="icon-safe-svgrepo-com" viewBox="0 0 32 32">
<path d="M4.875 27.61h4.55v1.77h-4.55v-1.77z"></path>
<path d="M23.326 27.61h4.549v1.77h-4.549v-1.77z"></path>
<path d="M23.474 13.262l0.838-0.839-0.53-0.53-0.838 0.838c-0.298-0.215-0.646-0.355-1.026-0.41v-1.199h-0.75v1.207c-0.368 0.066-0.702 0.223-0.988 0.439l-0.876-0.875-0.53 0.53 0.884 0.884c-0.195 0.286-0.32 0.621-0.373 0.98h-1.282v0.75h1.291c0.064 0.348 0.202 0.666 0.401 0.942l-0.921 0.921 0.53 0.531 0.922-0.922c0.275 0.199 0.594 0.339 0.942 0.402v1.291h0.75v-1.283c0.358-0.052 0.694-0.177 0.98-0.373l0.884 0.885 0.53-0.531-0.876-0.875c0.218-0.287 0.373-0.62 0.439-0.988h1.209v-0.75h-1.201c-0.055-0.38-0.195-0.728-0.409-1.025z"></path>
<path d="M29.166 2.62h-26.331c-1.565 0-2.835 1.269-2.835 2.835v18.33c0 1.566 1.27 2.835 2.835 2.835h26.331c1.565 0 2.834-1.269 2.834-2.835v-18.33c0-1.566-1.269-2.835-2.834-2.835zM29.75 23.785c0 0.323-0.262 0.584-0.584 0.585h-26.331c-0.323-0.001-0.584-0.262-0.585-0.585v-18.33c0.001-0.323 0.262-0.584 0.585-0.585h26.331c0.322 0.001 0.584 0.262 0.584 0.585v18.33z"></path>
<path d="M29.166 5.37h-26.331c-0.047 0-0.085 0.038-0.085 0.085v18.33c0 0.047 0.038 0.085 0.085 0.085h26.331c0.046 0 0.084-0.038 0.084-0.085v-18.33c0-0.047-0.038-0.085-0.084-0.085zM8.084 13.648v4.889c0 0.553-0.448 1-1 1s-1-0.447-1-1v-4.854c-0.372-0.293-0.616-0.741-0.616-1.251 0-0.881 0.714-1.595 1.595-1.595s1.595 0.714 1.595 1.595c-0 0.49-0.226 0.923-0.573 1.216zM21.583 19.87c-2.899 0-5.25-2.351-5.25-5.25s2.351-5.25 5.25-5.25 5.25 2.351 5.25 5.25-2.351 5.25-5.25 5.25z"></path>
</symbol>
<symbol id="icon-euro-svgrepo-com" viewBox="0 0 32 32">
<path d="M24.080 21.751c0.511 0.359 1.205 1.066 1.205 1.066 0.057 0.050 0.133 0.068 0.206 0.051s0.133-0.069 0.16-0.139c0 0 3.241-8.251 4.921-12.529-6.035-6.63-17.297 0.045-24.070-4.708-0.514-0.361-1.215-1.073-1.215-1.073-0.055-0.050-0.133-0.068-0.205-0.052s-0.133 0.070-0.16 0.14c0 0-3.241 8.251-4.922 12.529 6.039 6.634 17.308-0.051 24.080 4.715zM19.874 8.578c2.443-0.078 4.81 0.039 6.89 0.888-0.327 1.158 0.177 2.358 1.074 3.258-0.714 1.819-1.429 3.639-2.144 5.459-1.042-0.533-2.243 0.043-2.786 1.099-2.079-0.85-4.445-0.966-6.889-0.889 2.035-1.019 3.828-2.771 4.658-4.883 0.828-2.11 0.477-4.027-0.804-4.932zM18.479 10.737c0.037 0.012 0.075 0.022 0.113 0.035-0.211 0.335-0.422 0.671-0.632 1.007-0.050-0.019-0.103-0.037-0.153-0.055-0.25-0.092-0.535-0.13-0.844-0.111-0.893 0.051-1.888 0.54-2.545 1.233 0.992-0.054 1.99-0.122 2.979-0.168-0.16 0.254-0.318 0.508-0.479 0.762-1.010 0.050-2.027 0.12-3.037 0.172-0.021 0.044-0.039 0.087-0.057 0.13-0.043 0.108-0.074 0.217-0.096 0.327 0.964-0.051 1.936-0.116 2.898-0.165-0.158 0.254-0.318 0.509-0.478 0.763-0.79 0.042-1.582 0.093-2.372 0.137 0.208 0.547 0.811 0.844 1.619 0.799 0.273-0.015 0.564-0.073 0.865-0.169 0.079-0.026 0.159-0.052 0.238-0.078-0.139 0.354-0.277 0.706-0.416 1.061l-0.127 0.031c-0.326 0.083-0.646 0.135-0.952 0.151-1.456 0.086-2.464-0.602-2.534-1.732-0.248 0.009-0.496 0.017-0.744 0.021 0.1-0.251 0.197-0.502 0.297-0.753 0.175-0.004 0.351-0.009 0.527-0.015 0.028-0.115 0.063-0.222 0.104-0.327 0.017-0.043 0.035-0.087 0.055-0.13-0.17 0.006-0.338 0.011-0.506 0.014 0.098-0.251 0.197-0.503 0.295-0.754 0.221-0.004 0.441-0.011 0.664-0.019 0.939-1.257 2.645-2.194 4.191-2.287 0.412-0.024 0.789 0.017 1.125 0.12zM2.734 14.512c0.715-1.819 1.43-3.639 2.145-5.458 1.041 0.533 2.242-0.044 2.783-1.099 2.080 0.851 4.448 0.967 6.893 0.89-2.036 1.019-3.829 2.769-4.659 4.883-0.829 2.11-0.478 4.028 0.802 4.932-2.443 0.077-4.811-0.039-6.891-0.89 0.328-1.156-0.174-2.36-1.072-3.258z"></path>
<path d="M7.934 14.188c0.389 0.065 0.824-0.19 0.965-0.549s-0.066-0.684-0.455-0.749c-0.388-0.064-0.81 0.157-0.95 0.515s0.052 0.72 0.44 0.783z"></path>
<path d="M22.129 14.346c0.388 0.065 0.811-0.156 0.951-0.514 0.141-0.359-0.053-0.72-0.441-0.783s-0.824 0.19-0.965 0.549c-0.141 0.357 0.066 0.686 0.455 0.748z"></path>
<path d="M31.253 12.086l-5.257 13.471c-0.186-0.254-0.398-0.533-0.635-0.815l-0.011-0.013-0.013-0.014c-0.6-0.64-1.521-1.382-2.865-1.96-1.342-0.578-3.104-0.99-5.371-0.99-0.072 0.001-0.148 0.001-0.227 0.002v0c-1.251 0-2.557 0.078-3.811 0.153-1.287 0.077-2.607 0.155-3.881 0.155-1.507 0-3.188-0.101-4.817-0.571-1.097-0.318-2.165-0.803-3.159-1.532l-0.525 1.126c1.068 0.746 2.209 1.248 3.348 1.575 1.798 0.518 3.594 0.618 5.154 0.619 1.322-0.001 2.666-0.080 3.953-0.157 1.254-0.075 2.537-0.151 3.738-0.151h0.011c0.069-0.001 0.142-0.002 0.216-0.001 2.122 0 3.709 0.382 4.891 0.891 1.174 0.505 1.949 1.136 2.448 1.664 0.333 0.4 0.632 0.81 0.845 1.118 0.109 0.156 0.195 0.286 0.254 0.377 0.030 0.045 0.053 0.080 0.068 0.104l0.016 0.027 0.005 0.007 0.157 0.251c0.092 0.148 0.26 0.231 0.433 0.215s0.322-0.129 0.386-0.29l5.396-13.828-0.747-1.432z"></path>
</symbol>
<symbol id="icon-simple-wallet-line-drawing-svgrepo-com" viewBox="0 0 32 32">
<path d="M30.901 14.889v-4.518c-0.001-2.129-1.478-3.906-3.464-4.379-0.191-2.313-2.123-4.133-4.486-4.133h-16.191c-3.386 0.001-6.179 2.49-6.672 5.737h-0.088v15.784c0.001 3.734 3.026 6.76 6.76 6.76h19.633c2.49 0 4.508-2.018 4.509-4.509v-2.854c0.634-0.181 1.098-0.757 1.099-1.447v-4.992c-0.001-0.691-0.465-1.268-1.099-1.449zM29.389 25.632c-0.001 0.829-0.334 1.573-0.878 2.118-0.544 0.543-1.288 0.877-2.118 0.877h-19.633c-1.451 0-2.758-0.586-3.71-1.536-0.95-0.952-1.536-2.259-1.536-3.71v-14.701l0.013-0.293c0.122-2.789 2.415-5.016 5.233-5.014h16.191c1.482-0.001 2.708 1.076 2.947 2.49h-21.777c-0.418 0-0.758 0.338-0.758 0.756s0.34 0.757 0.758 0.757l22.52 0.013c1.537 0.127 2.748 1.413 2.748 2.982v4.453h-6.988c-1.105 0-2.11 0.45-2.834 1.174l-0.001 0.001c-0.724 0.724-1.175 1.728-1.173 2.835-0.002 1.105 0.449 2.109 1.174 2.834v0c0.724 0.725 1.729 1.175 2.834 1.174h6.988v2.79zM30.486 21.329h-8.086c-0.696-0.001-1.305-0.275-1.764-0.731-0.457-0.459-0.73-1.068-0.731-1.764 0.001-0.696 0.274-1.306 0.731-1.766l-0.006 0.006 0.005-0.006h0.001c0.459-0.455 1.067-0.729 1.764-0.73h8.086v4.991z"></path>
<path d="M21.373 18.834c0 0.599 0.484 1.084 1.084 1.084 0.598 0 1.084-0.485 1.084-1.084 0-0.6-0.486-1.085-1.084-1.085-0.6-0-1.084 0.485-1.084 1.085z"></path>
</symbol>
<symbol id="icon-euro-symbol-svgrepo-com" viewBox="0 0 32 32">
<path d="M27.072 6.518l-0.811-0.342c-1.331-0.563-2.716-0.844-4.115-0.844-4.048 0-7.765 2.346-9.551 5.94h13.5l-0.833 4.030h-13.763c-0.017 0.229-0.026 0.463-0.026 0.697 0 0.576 0.051 1.162 0.148 1.752h13.142l-0.828 4.031h-10.744c1.959 3.046 5.295 4.891 8.955 4.891 1.241 0 2.486-0.227 3.699-0.68l0.967-0.359v5.671l-0.53 0.142c-1.359 0.367-2.752 0.553-4.136 0.553-6.589 0-12.517-4.084-14.898-10.217h-3.409v-4.031h2.418c-0.074-0.617-0.11-1.193-0.11-1.752 0-0.23 0.006-0.469 0.016-0.697h-2.323v-4.030h3.042c2.065-6.663 8.264-11.272 15.266-11.272 1.859 0 3.686 0.327 5.434 0.965l0.581 0.215-1.089 5.338z"></path>
</symbol>
<symbol id="icon-usd-svgrepo-com" viewBox="0 0 32 32">
<path d="M22.298 16.404c-0.951-0.659-2.070-1.151-3.278-1.407l-0.060-0.011-1.182-0.253v-4.889c0.025 0.030 0.061 0.050 0.102 0.053l0 0c0.001-0 0.003-0 0.005-0 0.025 0 0.044 0.020 0.044 0.044 0 0.002-0 0.003-0 0.005l0-0c0.933 0.429 1.569 1.355 1.569 2.43 0 0 0 0.001 0 0.001v-0h3.898c-0.071-2.027-0.827-3.556-2.28-4.658-0.937-0.702-2.065-1.206-3.29-1.424l-0.047-0.007v-2.733h-3.556v2.631c-1.536 0.119-2.914 0.71-4.011 1.627l0.011-0.009c-1.183 1.028-1.926 2.535-1.926 4.216 0 0.047 0.001 0.095 0.002 0.142l-0-0.007q0 2.836 1.973 4.2c0.693 0.502 2.009 0.978 3.951 1.422v5.253c-0.645-0.16-1.197-0.497-1.615-0.957l-0.002-0.003c-0.421-0.528-0.697-1.189-0.759-1.911l-0.001-0.013h-3.844c-0.003 0.071-0.005 0.153-0.005 0.237 0 1.81 0.847 3.422 2.166 4.461l0.012 0.009c1.132 0.833 2.512 1.395 4.010 1.565l0.039 0.004v2.022h3.556v-1.973c1.604-0.154 3.043-0.759 4.217-1.684l-0.017 0.013c1.241-1.046 2.023-2.6 2.023-4.338 0-0.037-0-0.075-0.001-0.112l0 0.006q0-2.578-1.702-3.951zM14.222 13.876c-0.465-0.12-0.869-0.272-1.25-0.461l0.037 0.017c-0.575-0.272-0.965-0.848-0.965-1.515 0-0.019 0-0.038 0.001-0.057l-0 0.003c-0.001-0.024-0.002-0.052-0.002-0.081 0-0.718 0.384-1.347 0.957-1.692l0.009-0.005c0.349-0.205 0.751-0.379 1.176-0.502l0.037-0.009zM18.422 22.929c-0.177 0.071-0.382 0.126-0.596 0.154l-0.013 0.001v-4.507c0.562 0.167 1.048 0.374 1.504 0.628l-0.038-0.019c0.519 0.305 0.862 0.86 0.862 1.496 0 0.008-0 0.017-0 0.025v-0.001q-0.018 1.613-1.738 2.222z"></path>
</symbol>
<symbol id="icon-ukraine-hryvna-svgrepo-com" viewBox="0 0 32 32">
<path d="M25.827 17.937h-9.722c0.978-0.753 1.992-1.447 2.865-2.116 0.216-0.165 0.427-0.335 0.635-0.507h6.222c0.884 0 1.6-0.716 1.6-1.6s-0.716-1.6-1.6-1.6h-3.265c0.445-0.682 0.825-1.413 1.104-2.22 0.72-2.080 0.361-4.476-0.843-6.296-3.035-4.591-9.27-4.252-13.611-1.971-1.827 0.96-0.21 3.721 1.615 2.763 2.155-1.132 4.548-1.643 6.904-0.868 1.612 0.53 2.951 1.994 3.091 3.714 0.158 1.95-1.024 3.586-2.386 4.879h-12.263c-0.884 0-1.6 0.716-1.6 1.6s0.716 1.6 1.6 1.6h8.153c-0.745 0.55-1.476 1.116-2.161 1.744-0.3 0.276-0.581 0.57-0.845 0.878h-5.147c-0.884 0-1.6 0.716-1.6 1.6s0.716 1.6 1.6 1.6h3.281c-1.040 2.887-0.712 6.165 1.627 8.579 3.236 3.339 8.787 2.52 12.544 0.69 1.855-0.904 0.232-3.662-1.615-2.763-2.908 1.418-8.239 2.178-9.62-1.716-0.664-1.872-0.315-3.435 0.543-4.789h12.893c0.884 0 1.6-0.716 1.6-1.6s-0.716-1.601-1.6-1.601z"></path>
</symbol>
<symbol id="icon-plus-circle-svgrepo-com" viewBox="0 0 32 32">
<path d="M1.333 16c0 8.1 6.566 14.667 14.667 14.667s14.667-6.567 14.667-14.667c0-8.1-6.567-14.667-14.667-14.667s-14.667 6.566-14.667 14.667zM16.667 7.333c0.736 0 1.333 0.597 1.333 1.333v5.333h5.333c0.736 0 1.333 0.597 1.333 1.333v1.333c0 0.736-0.597 1.333-1.333 1.333h-5.333v5.333c0 0.736-0.597 1.333-1.333 1.333h-1.333c-0.736 0-1.333-0.597-1.333-1.333v-5.333h-5.333c-0.736 0-1.333-0.597-1.333-1.333v-1.333c0-0.736 0.597-1.333 1.333-1.333h5.333v-5.333c0-0.736 0.597-1.333 1.333-1.333h1.333z"></path>
</symbol>
<symbol id="icon-calendar-svgrepo-com" viewBox="0 0 32 32">
<path fill="#f6f6f7" style="fill: var(--color1, #f6f6f7)" d="M31.499 5.846c0-1.181-0.957-2.138-2.138-2.138h-26.722c-1.181 0-2.138 0.957-2.138 2.138v25.653h19.975l11.023-11.023v-14.63z"></path>
<path fill="#d9dcdf" style="fill: var(--color2, #d9dcdf)" d="M5.311 3.708h-2.672c-1.181 0-2.138 0.957-2.138 2.138v25.653h2.672v-25.654c0-1.181 0.957-2.138 2.138-2.138z"></path>
<path fill="#ff8c78" style="fill: var(--color3, #ff8c78)" d="M31.499 5.846c0-1.181-0.957-2.138-2.138-2.138h-26.722c-1.181 0-2.138 0.957-2.138 2.138v3.741h30.998v-3.741z"></path>
<path fill="#df7a6e" style="fill: var(--color4, #df7a6e)" d="M5.311 3.708h-2.672c-1.181 0-2.138 0.957-2.138 2.138v3.741h2.672v-3.741c0-1.181 0.957-2.138 2.138-2.138z"></path>
<path fill="#b3b9bf" style="fill: var(--color5, #b3b9bf)" d="M8.518 6.914v0c-0.59 0-1.069-0.479-1.069-1.069v-4.276c0-0.59 0.479-1.069 1.069-1.069v0c0.59 0 1.069 0.478 1.069 1.069v4.276c0 0.59-0.479 1.069-1.069 1.069z"></path>
<path fill="#b3b9bf" style="fill: var(--color5, #b3b9bf)" d="M16 6.914v0c-0.59 0-1.069-0.479-1.069-1.069v-4.276c0-0.59 0.479-1.069 1.069-1.069v0c0.59 0 1.069 0.478 1.069 1.069v4.276c0 0.59-0.479 1.069-1.069 1.069z"></path>
<path fill="#b3b9bf" style="fill: var(--color5, #b3b9bf)" d="M22.948 6.914v0c-0.59 0-1.069-0.479-1.069-1.069v-4.276c0-0.59 0.479-1.069 1.069-1.069v0c0.59 0 1.069 0.478 1.069 1.069v4.276c0 0.59-0.479 1.069-1.069 1.069z"></path>
<path fill="#8e959f" style="fill: var(--color6, #8e959f)" d="M8.518 5.846v-4.276c0-0.395 0.215-0.74 0.534-0.925-0.157-0.091-0.339-0.144-0.534-0.144-0.59 0-1.069 0.479-1.069 1.069v4.276c0 0.59 0.479 1.069 1.069 1.069 0.195 0 0.377-0.053 0.534-0.144-0.319-0.185-0.534-0.529-0.534-0.925z"></path>
<path fill="#8e959f" style="fill: var(--color6, #8e959f)" d="M16 5.846v-4.276c0-0.395 0.215-0.74 0.534-0.925-0.157-0.091-0.34-0.144-0.534-0.144-0.59 0-1.069 0.479-1.069 1.069v4.276c0 0.59 0.479 1.069 1.069 1.069 0.195 0 0.377-0.053 0.534-0.144-0.319-0.185-0.534-0.529-0.534-0.925z"></path>
<path fill="#8e959f" style="fill: var(--color6, #8e959f)" d="M22.948 5.846v-4.276c0-0.395 0.215-0.74 0.534-0.925-0.157-0.091-0.34-0.144-0.534-0.144-0.59 0-1.069 0.479-1.069 1.069v4.276c0 0.59 0.479 1.069 1.069 1.069 0.195 0 0.377-0.053 0.534-0.144-0.319-0.185-0.534-0.529-0.534-0.925z"></path>
<path fill="#509fe8" style="fill: var(--color7, #509fe8)" d="M11.19 28.827c-1.285 0-2.488-0.505-3.388-1.423-0.387-0.395-0.381-1.030 0.014-1.417s1.030-0.381 1.417 0.014c0.52 0.53 1.214 0.822 1.956 0.822 1.51 0 2.739-1.229 2.739-2.739s-1.229-2.739-2.739-2.739c-0.553 0-1.002-0.449-1.002-1.002s0.449-1.002 1.002-1.002c1.51 0 2.739-1.229 2.739-2.739s-1.229-2.739-2.739-2.739c-0.721 0-1.402 0.278-1.917 0.783-0.395 0.387-1.030 0.381-1.417-0.014s-0.381-1.030 0.014-1.417c0.892-0.874 2.071-1.355 3.32-1.355 2.615 0 4.743 2.128 4.743 4.743 0 1.518-0.717 2.872-1.831 3.741 1.113 0.869 1.831 2.223 1.831 3.741 0 2.615-2.128 4.743-4.743 4.743z"></path>
<path fill="#509fe8" style="fill: var(--color7, #509fe8)" d="M24.484 12.86c0-0.383-0.218-0.732-0.562-0.9s-0.753-0.126-1.055 0.109l-4.81 3.741c-0.437 0.34-0.516 0.969-0.176 1.406s0.969 0.516 1.406 0.176l3.193-2.483v12.314h2.004v-14.363z"></path>
<path fill="#d9dcdf" style="fill: var(--color2, #d9dcdf)" d="M20.476 31.499l11.023-11.023h-11.023z"></path>
<path fill="#000" style="fill: var(--color8, #000)" d="M11.19 26.322c-0.606 0-1.174-0.238-1.598-0.672-0.58-0.592-1.534-0.601-2.126-0.021s-0.601 1.534-0.021 2.126v0c0.995 1.015 2.325 1.574 3.746 1.574 2.892 0 5.244-2.353 5.244-5.244 0-1.424-0.566-2.758-1.571-3.741 1.005-0.983 1.571-2.317 1.571-3.741 0-2.892-2.353-5.244-5.244-5.244-1.381 0-2.684 0.532-3.67 1.498-0.592 0.58-0.602 1.534-0.021 2.126s1.534 0.601 2.126 0.022c0.421-0.412 0.977-0.639 1.566-0.639 1.234 0 2.238 1.004 2.238 2.238s-1.004 2.238-2.238 2.238c-0.829 0-1.503 0.674-1.503 1.503s0.674 1.503 1.503 1.503c1.234 0 2.238 1.004 2.238 2.238s-1.004 2.238-2.238 2.238zM11.19 20.843c-0.276 0-0.501-0.225-0.501-0.501s0.225-0.501 0.501-0.501c1.787 0 3.24-1.453 3.24-3.24s-1.454-3.24-3.24-3.24c-0.853 0-1.658 0.329-2.268 0.926-0.197 0.193-0.515 0.19-0.709-0.007s-0.19-0.515 0.007-0.709c0.798-0.782 1.852-1.212 2.969-1.212 2.339 0 4.242 1.903 4.242 4.242 0 1.314-0.597 2.534-1.638 3.346-0.253 0.198-0.253 0.593 0 0.79 1.041 0.812 1.638 2.032 1.638 3.346 0 2.339-1.903 4.242-4.242 4.242-1.149 0-2.225-0.452-3.030-1.273-0.172-0.178-0.19-0.462-0.037-0.659 0.183-0.235 0.544-0.255 0.753-0.043 0.615 0.627 1.436 0.972 2.314 0.972 1.787 0 3.24-1.454 3.24-3.24s-1.453-3.24-3.24-3.24z"></path>
<path fill="#000" style="fill: var(--color8, #000)" d="M31.886 20.794c0.073-0.088 0.114-0.203 0.114-0.318v-14.63c0-1.455-1.184-2.639-2.639-2.639h-4.843v-1.637c0-0.866-0.704-1.57-1.57-1.57s-1.57 0.704-1.57 1.57v1.637h-3.808v-1.637c0-0.866-0.704-1.57-1.57-1.57s-1.57 0.704-1.57 1.57v1.637h-4.342v-1.637c0-0.866-0.704-1.57-1.57-1.57s-1.57 0.704-1.57 1.57v1.637h-4.309c-1.455 0-2.639 1.184-2.639 2.639v9.62c0 0.277 0.224 0.501 0.501 0.501s0.501-0.224 0.501-0.501v-5.378h25.152c0.277 0 0.501-0.224 0.501-0.501s-0.224-0.501-0.501-0.501h-25.152v-3.24c0-0.902 0.734-1.637 1.637-1.637h4.309v1.637c0 0.866 0.704 1.57 1.57 1.57s1.57-0.704 1.57-1.57v-1.637h4.342v1.637c0 0.866 0.704 1.57 1.57 1.57s1.57-0.704 1.57-1.57v-1.637h3.808v1.637c0 0.866 0.704 1.57 1.57 1.57s1.57-0.704 1.57-1.57v-1.637h4.843c0.902 0 1.637 0.734 1.637 1.637v3.24h-2.171c-0.277 0-0.501 0.224-0.501 0.501s0.224 0.501 0.501 0.501h2.171v9.887h-6.013v-7.115c0-0.57-0.331-1.1-0.843-1.35s-1.133-0.186-1.583 0.164l-4.81 3.741c-0.654 0.509-0.773 1.455-0.264 2.109 0.503 0.646 1.462 0.767 2.109 0.264l2.384-1.854v4.041h-1.503c-0.277 0-0.501 0.224-0.501 0.501v10.522h-18.973v-12.86c0-0.277-0.224-0.501-0.501-0.501s-0.501 0.224-0.501 0.501v13.361c0 0.277 0.224 0.501 0.501 0.501h19.975c0.131 0 0.262-0.054 0.354-0.147l11.023-11.023c0.012-0.012 0.023-0.024 0.033-0.037zM9.086 5.846c0 0.313-0.255 0.568-0.568 0.568s-0.568-0.255-0.568-0.568v-4.276c0-0.313 0.255-0.568 0.568-0.568s0.568 0.255 0.568 0.568v4.276zM16.568 5.846c0 0.313-0.255 0.568-0.568 0.568s-0.568-0.255-0.568-0.568v-4.276c0-0.313 0.255-0.568 0.568-0.568s0.568 0.255 0.568 0.568v4.276zM23.516 5.846c0 0.313-0.255 0.568-0.568 0.568s-0.568-0.255-0.568-0.568v-4.276c0-0.313 0.255-0.568 0.568-0.568s0.568 0.255 0.568 0.568v4.276zM18.98 16.997c-0.215 0.168-0.536 0.128-0.703-0.088s-0.128-0.535 0.088-0.703l4.81-3.741c0.323-0.251 0.809-0.012 0.809 0.396v7.115h-1.002v-5.066c0-0.408-0.486-0.647-0.809-0.396l-3.193 2.483zM30.289 20.977l-9.312 9.312v-9.312h9.312z"></path>
</symbol>
<symbol id="icon-next-svgrepo-com" viewBox="0 0 32 32">
<path d="M24.684 13.727c-0.161-0.162-0.339-0.298-0.523-0.417l-12.403-12.402c-1.21-1.209-3.172-1.21-4.383 0.001s-1.21 3.172 0 4.383l10.682 10.681-10.736 10.737c-1.211 1.209-1.211 3.172 0 4.383 0.606 0.604 1.398 0.907 2.191 0.907s1.587-0.302 2.191-0.908l12.459-12.457c0.185-0.119 0.362-0.255 0.523-0.417 0.62-0.62 0.917-1.434 0.903-2.245 0.014-0.812-0.284-1.627-0.903-2.245z"></path>
</symbol>
<symbol id="icon-previous-svgrepo-com" viewBox="0 0 32 32">
<path d="M7.315 13.726c0.162-0.162 0.339-0.298 0.524-0.417l12.402-12.402c1.21-1.209 3.173-1.21 4.383 0.001s1.21 3.172 0 4.383l-10.681 10.681 10.736 10.736c1.21 1.21 1.21 3.172 0 4.383-0.606 0.606-1.399 0.908-2.191 0.908s-1.586-0.302-2.191-0.908l-12.458-12.459c-0.185-0.119-0.363-0.255-0.524-0.417-0.619-0.619-0.917-1.434-0.902-2.245-0.015-0.811 0.284-1.625 0.902-2.245z"></path>
</symbol>
<symbol id="icon-up-arrow-svgrepo-com" viewBox="0 0 32 32">
<path d="M16 0c-8.836 0-16 7.164-16 16s7.163 16 16 16 16-7.164 16-16c0-8.836-7.164-16-16-16zM23.22 20.244c-0.583 0.583-1.529 0.583-2.113 0l-5.148-5.149-5.176 5.175c-0.583 0.583-1.529 0.583-2.113 0-0.291-0.292-0.437-0.674-0.437-1.057s0.146-0.764 0.438-1.056l6.004-6.005c0.057-0.089 0.123-0.175 0.201-0.253 0.298-0.298 0.691-0.442 1.082-0.435 0.391-0.007 0.784 0.137 1.082 0.435 0.078 0.078 0.144 0.163 0.201 0.252l5.978 5.978c0.583 0.583 0.584 1.529 0 2.113z"></path>
</symbol>
</defs>
</svg>
